<svg width="250" height="221" viewBox="0 0 250 221" fill="none" xmlns="http://www.w3.org/2000/svg">
<g clip-path="url(#clip0_212_1509)">
<path d="M95.6476 35.4065C95.5646 35.4064 95.4847 35.3749 95.424 35.3182C95.3633 35.2616 95.3263 35.1841 95.3205 35.1012C95.1059 32.1849 93.798 29.4571 91.6584 27.4638C89.5188 25.4705 86.7054 24.3587 83.7812 24.3508C83.4312 24.3508 83.0636 24.3686 82.6884 24.4037C82.6257 24.4096 82.5626 24.3973 82.5066 24.3683C82.4507 24.3393 82.4043 24.2948 82.373 24.2401C81.0297 21.8889 79.0238 19.9854 76.6056 18.7671C74.1873 17.5488 71.4638 17.0696 68.775 17.3894C66.0861 17.7092 63.551 18.8138 61.486 20.5653C59.4209 22.3169 57.9174 24.6378 57.1631 27.2384C57.1432 27.3081 57.1007 27.3692 57.0423 27.412C56.9838 27.4549 56.9128 27.4771 56.8403 27.4752L56.753 27.4726C56.7076 27.4711 56.6623 27.4694 56.6165 27.4694C54.3985 27.4764 52.2496 28.2415 50.5262 29.6378C48.8029 31.0341 47.6088 32.9776 47.142 35.146C47.1265 35.2197 47.0861 35.2858 47.0276 35.3332C46.9691 35.3806 46.8961 35.4065 46.8208 35.4065H24.8283C24.7413 35.4063 24.6581 35.3716 24.5967 35.3101C24.5353 35.2485 24.5009 35.1652 24.5009 35.0783C24.5009 34.9913 24.5353 34.908 24.5967 34.8464C24.6581 34.7849 24.7413 34.7502 24.8283 34.75H46.5581C47.1051 32.4946 48.3918 30.4875 50.2129 29.0489C52.034 27.6102 54.2844 26.823 56.6052 26.8129C57.4314 24.1404 59.0159 21.7654 61.1662 19.9764C63.3166 18.1873 65.9402 17.0613 68.7183 16.735C71.4965 16.4087 74.3096 16.8963 76.816 18.1384C79.3223 19.3805 81.414 21.3238 82.8369 23.7321C83.1598 23.707 83.4766 23.6943 83.7812 23.6943C86.8714 23.7027 89.8445 24.8777 92.1055 26.9842C94.3665 29.0907 95.7487 31.9733 95.9754 35.0553C95.9785 35.0983 95.973 35.1414 95.9593 35.1823C95.9457 35.2232 95.9241 35.261 95.8958 35.2936C95.8675 35.3261 95.8331 35.3528 95.7945 35.372C95.7559 35.3913 95.7139 35.4027 95.6709 35.4057C95.6631 35.4063 95.6554 35.4065 95.6476 35.4065Z" fill="#CBCBCB"/>
<path d="M91.7418 39.6155H37.9049C37.8179 39.6155 37.7344 39.5809 37.6728 39.5194C37.6112 39.4578 37.5767 39.3743 37.5767 39.2873C37.5767 39.2002 37.6112 39.1167 37.6728 39.0551C37.7344 38.9936 37.8179 38.959 37.9049 38.959H91.7418C91.8289 38.959 91.9124 38.9936 91.9739 39.0551C92.0355 39.1167 92.0701 39.2002 92.0701 39.2873C92.0701 39.3743 92.0355 39.4578 91.9739 39.5194C91.9124 39.5809 91.8289 39.6155 91.7418 39.6155Z" fill="#CBCBCB"/>
<path d="M51.0359 44.3755H32.9808C32.9376 44.3756 32.8949 44.3672 32.8549 44.3507C32.815 44.3343 32.7787 44.3101 32.7481 44.2796C32.7176 44.2491 32.6933 44.2129 32.6767 44.173C32.6602 44.1332 32.6517 44.0904 32.6517 44.0472C32.6517 44.004 32.6602 43.9613 32.6767 43.9214C32.6933 43.8815 32.7176 43.8453 32.7481 43.8148C32.7787 43.7843 32.815 43.7601 32.8549 43.7437C32.8949 43.7272 32.9376 43.7188 32.9808 43.7189H51.0359C51.1228 43.7192 51.2061 43.7539 51.2674 43.8154C51.3288 43.8769 51.3633 43.9603 51.3633 44.0472C51.3633 44.1341 51.3288 44.2175 51.2674 44.279C51.2061 44.3406 51.1228 44.3753 51.0359 44.3755Z" fill="#CBCBCB"/>
<path d="M67.9165 108.249C67.9165 121.595 53.9247 127.981 53.9247 127.981C53.9247 127.981 39.7895 121.595 39.5025 108.249C39.3338 100.404 45.8632 94.0417 53.7095 94.0417C55.5752 94.0417 57.4226 94.4092 59.1463 95.1232C60.8699 95.8372 62.4361 96.8836 63.7554 98.2029C65.0746 99.5221 66.1211 101.088 66.8351 102.812C67.549 104.536 67.9165 106.383 67.9165 108.249Z" fill="#E5E5E5"/>
<path d="M58.6605 128.77H49.1891L48.041 124.178H59.8084L58.6605 128.77Z" fill="#CBCBCB"/>
<path d="M58.3375 136.623H49.512V141.223H58.3375V136.623Z" fill="white"/>
<path d="M58.4093 141.294H49.4402V136.552H58.4093V141.294ZM49.5837 141.151H58.2658V136.695H49.5837V141.151Z" fill="#CBCBCB"/>
<path d="M55.7339 129.312H52.1157L51.7005 128.659H56.1491L55.7339 129.312Z" fill="#CBCBCB"/>
<path d="M49.4043 128.77H49.2608V135.802H49.4043V128.77Z" fill="#CBCBCB"/>
<path d="M58.5886 128.77H58.4451V135.802H58.5886V128.77Z" fill="#CBCBCB"/>
<path d="M55.3632 124.1L55.2756 123.986C59.4213 120.789 64.3632 115.312 64.3632 107.375C64.3665 104.596 63.549 101.877 62.0132 99.5597C60.4774 97.2427 58.2916 95.4307 55.73 94.351L55.7859 94.2189C58.3735 95.3095 60.5814 97.1399 62.1329 99.4804C63.6843 101.821 64.5101 104.567 64.5067 107.375C64.5067 115.371 59.5344 120.883 55.3632 124.1Z" fill="#CBCBCB"/>
<path d="M50.771 124.1L50.6833 123.986C54.8291 120.789 59.7711 115.312 59.7711 107.375C59.7722 104.614 58.9645 101.913 57.4477 99.6061C55.9309 97.2989 53.7715 95.4866 51.2362 94.393L51.2931 94.2612C53.8541 95.366 56.0354 97.1967 57.5676 99.5273C59.0998 101.858 59.9157 104.586 59.9146 107.375C59.9146 115.371 54.9422 120.883 50.771 124.1Z" fill="#CBCBCB"/>
<path d="M56.6479 124.1C52.4767 120.883 47.5044 115.371 47.5044 107.375C47.5033 104.586 48.3192 101.858 49.8514 99.5273C51.3836 97.1967 53.565 95.3659 56.126 94.2612L56.1829 94.393C53.6476 95.4866 51.4881 97.2989 49.9713 99.6061C48.4545 101.913 47.6468 104.614 47.6479 107.375C47.6479 115.312 52.5898 120.789 56.7356 123.986L56.6479 124.1Z" fill="#CBCBCB"/>
<path d="M52.0558 124.1C47.8846 120.883 42.9123 115.371 42.9123 107.375C42.9076 104.556 43.7392 101.799 45.3019 99.4529C46.8646 97.1066 49.0882 95.2766 51.6913 94.1943L51.7466 94.3268C49.1697 95.3981 46.9684 97.2098 45.4214 99.5325C43.8744 101.855 43.0511 104.585 43.0557 107.375C43.0557 115.312 47.9977 120.789 52.1434 123.986L52.0558 124.1Z" fill="#CBCBCB"/>
<path d="M53.7813 94.0417H53.6378V124.178H53.7813V94.0417Z" fill="#CBCBCB"/>
<path d="M52.0927 135.581L49.4612 138.212L49.5627 138.314L52.1942 135.682L52.0927 135.581Z" fill="#CBCBCB"/>
<path d="M53.3719 135.537L49.4602 139.651L49.5642 139.75L53.4759 135.636L53.3719 135.537Z" fill="#CBCBCB"/>
<path d="M59.1627 135.587H48.3998V136.878H59.1627V135.587Z" fill="white"/>
<path d="M59.2345 136.95H48.3281V135.515H59.2345V136.95ZM48.4716 136.806H59.091V135.658H48.4716V136.806Z" fill="#CBCBCB"/>
<path d="M94.9945 74.426C94.9945 83.2349 85.7594 87.4499 85.7594 87.4499C85.7594 87.4499 76.4295 83.2349 76.24 74.426C76.1287 69.2482 80.4384 65.0487 85.6173 65.0487C88.1043 65.0487 90.4894 66.0367 92.248 67.7952C94.0066 69.5538 94.9945 71.939 94.9945 74.426Z" fill="#E5E5E5"/>
<path d="M88.8851 87.9709H82.6335L81.8759 84.9398H89.643L88.8851 87.9709Z" fill="#CBCBCB"/>
<path d="M88.672 93.1545H82.8467V96.1902H88.672V93.1545Z" fill="white"/>
<path d="M88.7194 96.2375H82.7994V93.1071H88.7194V96.2375ZM82.8941 96.1428H88.6246V93.2018H82.8941V96.1428Z" fill="#CBCBCB"/>
<path d="M86.9534 88.3283H84.5652L84.2911 87.8976H87.2275L86.9534 88.3283Z" fill="#CBCBCB"/>
<path d="M82.7757 87.9709H82.681V92.6122H82.7757V87.9709Z" fill="#CBCBCB"/>
<path d="M88.8378 87.9709H88.743V92.6122H88.8378V87.9709Z" fill="#CBCBCB"/>
<path d="M86.7088 84.8885L86.651 84.8135C89.3874 82.7033 92.6492 79.0883 92.6492 73.8495C92.6514 72.0147 92.1118 70.2201 91.0981 68.6908C90.0844 67.1615 88.6417 65.9655 86.951 65.2528L86.9879 65.1656C88.6958 65.8855 90.1531 67.0936 91.1771 68.6384C92.2011 70.1833 92.7462 71.9961 92.744 73.8495C92.744 79.1267 89.462 82.7654 86.7088 84.8885Z" fill="#CBCBCB"/>
<path d="M83.6778 84.8886L83.6199 84.8135C86.3563 82.7034 89.6182 79.0883 89.6182 73.8495C89.619 72.0271 89.0858 70.2443 88.0847 68.7215C87.0835 67.1986 85.6582 66.0024 83.9848 65.2806L84.0224 65.1936C85.7128 65.9228 87.1525 67.1311 88.1638 68.6694C89.1751 70.2077 89.7137 72.0086 89.7129 73.8495C89.7129 79.1268 86.431 82.7654 83.6778 84.8886Z" fill="#CBCBCB"/>
<path d="M87.5568 84.8886C84.8036 82.7654 81.5217 79.1268 81.5217 73.8496C81.5209 72.0086 82.0595 70.2077 83.0708 68.6694C84.0821 67.1311 85.5219 65.9228 87.2123 65.1936L87.2499 65.2806C85.5764 66.0024 84.1511 67.1986 83.1499 68.7215C82.1488 70.2443 81.6156 72.0271 81.6164 73.8496C81.6164 79.0883 84.8783 82.7034 87.6146 84.8135L87.5568 84.8886Z" fill="#CBCBCB"/>
<path d="M84.5258 84.8885C81.7726 82.7654 78.4906 79.1268 78.4906 73.8495C78.4875 71.9888 79.0364 70.169 80.0679 68.6203C81.0994 67.0716 82.567 65.8637 84.2852 65.1494L84.3217 65.2368C82.6208 65.944 81.1679 67.1397 80.1468 68.6728C79.1257 70.2059 78.5823 72.0075 78.5853 73.8495C78.5853 79.0883 81.8472 82.7033 84.5836 84.8135L84.5258 84.8885Z" fill="#CBCBCB"/>
<path d="M85.6647 65.0487H85.5699V84.9398H85.6647V65.0487Z" fill="#CBCBCB"/>
<path d="M84.5501 92.4662L82.8132 94.2031L82.8802 94.2701L84.6171 92.5332L84.5501 92.4662Z" fill="#CBCBCB"/>
<path d="M85.3945 92.4373L82.8126 95.1528L82.8813 95.218L85.4632 92.5025L85.3945 92.4373Z" fill="#CBCBCB"/>
<path d="M89.2167 92.4701H82.1127V93.3226H89.2167V92.4701Z" fill="white"/>
<path d="M89.264 93.3699H82.0653V92.4227H89.264V93.3699ZM82.16 93.2752H89.1693V92.5174H82.16V93.2752Z" fill="#CBCBCB"/>
<path d="M173.502 86.4694C173.562 86.4693 173.619 86.4467 173.663 86.4061C173.706 86.3655 173.733 86.3099 173.737 86.2506C173.891 84.1602 174.828 82.205 176.362 80.7762C177.895 79.3474 179.912 78.5505 182.008 78.5448C182.259 78.5448 182.522 78.5576 182.791 78.5827C182.836 78.587 182.881 78.5781 182.922 78.5573C182.962 78.5365 182.995 78.5046 183.017 78.4654C183.98 76.7801 185.418 75.4157 187.151 74.5425C188.885 73.6692 190.837 73.3257 192.764 73.555C194.692 73.7842 196.509 74.5759 197.989 75.8314C199.469 77.0869 200.547 78.7505 201.087 80.6146C201.102 80.6645 201.132 80.7083 201.174 80.739C201.216 80.7698 201.267 80.7857 201.319 80.7843L201.381 80.7824C201.414 80.7813 201.446 80.7802 201.479 80.7802C203.069 80.7852 204.609 81.3336 205.845 82.3344C207.08 83.3353 207.936 84.7284 208.27 86.2826C208.282 86.3354 208.311 86.3828 208.352 86.4168C208.394 86.4508 208.447 86.4694 208.501 86.4694H224.265C224.296 86.4695 224.326 86.4635 224.355 86.4517C224.384 86.4399 224.41 86.4226 224.432 86.4007C224.453 86.3789 224.471 86.3529 224.483 86.3243C224.495 86.2957 224.501 86.265 224.501 86.2341C224.501 86.2031 224.495 86.1725 224.483 86.1439C224.471 86.1153 224.453 86.0893 224.432 86.0674C224.41 86.0456 224.384 86.0283 224.355 86.0165C224.326 86.0047 224.296 85.9987 224.265 85.9988H208.689C208.297 84.3822 207.375 82.9435 206.069 81.9123C204.764 80.8811 203.151 80.3168 201.487 80.3096C200.895 78.394 199.759 76.6916 198.218 75.4092C196.677 74.1269 194.796 73.3197 192.805 73.0859C190.813 72.852 188.797 73.2015 187.001 74.0918C185.204 74.9822 183.705 76.3751 182.685 78.1013C182.453 78.0833 182.226 78.0742 182.008 78.0742C179.793 78.0802 177.662 78.9224 176.041 80.4324C174.421 81.9423 173.43 84.0085 173.267 86.2176C173.265 86.2484 173.269 86.2794 173.279 86.3087C173.289 86.338 173.304 86.3651 173.324 86.3884C173.345 86.4118 173.369 86.4309 173.397 86.4447C173.425 86.4584 173.455 86.4667 173.486 86.4688C173.491 86.4692 173.497 86.4694 173.502 86.4694Z" fill="#CBCBCB"/>
<path d="M176.302 89.4864H214.891C214.954 89.4864 215.014 89.4616 215.058 89.4175C215.102 89.3734 215.127 89.3135 215.127 89.2511C215.127 89.1887 215.102 89.1289 215.058 89.0847C215.014 89.0406 214.954 89.0158 214.891 89.0158H176.302C176.239 89.0158 176.18 89.0406 176.136 89.0847C176.091 89.1289 176.067 89.1887 176.067 89.2511C176.067 89.3135 176.091 89.3734 176.136 89.4175C176.18 89.4616 176.239 89.4864 176.302 89.4864Z" fill="#CBCBCB"/>
<path d="M205.479 92.8983H218.421C218.483 92.8981 218.543 92.8732 218.587 92.8291C218.631 92.785 218.656 92.7253 218.656 92.663C218.656 92.6007 218.631 92.541 218.587 92.4968C218.543 92.4527 218.483 92.4279 218.421 92.4277H205.479C205.449 92.4277 205.418 92.4338 205.389 92.4456C205.361 92.4574 205.335 92.4747 205.313 92.4966C205.291 92.5184 205.274 92.5444 205.262 92.5729C205.25 92.6015 205.244 92.6321 205.244 92.663C205.244 92.6939 205.25 92.7245 205.262 92.753C205.274 92.7816 205.291 92.8075 205.313 92.8294C205.335 92.8512 205.361 92.8685 205.389 92.8804C205.418 92.8922 205.449 92.8983 205.479 92.8983Z" fill="#CBCBCB"/>
<path d="M145.343 149.674H144.568L144.2 146.686H145.343V149.674Z" fill="#9F616A"/>
<path d="M145.54 150.425H143.043V150.393C143.043 150.135 143.146 149.888 143.328 149.706C143.51 149.524 143.757 149.421 144.015 149.421H145.54V150.425Z" fill="#2F2E41"/>
<path d="M155.331 148.206L154.667 148.605L152.812 146.234L153.792 145.645L155.331 148.206Z" fill="#9F616A"/>
<path d="M153.746 150.034L153.73 150.007C153.597 149.786 153.558 149.522 153.62 149.271C153.683 149.021 153.842 148.806 154.063 148.673L155.37 147.888L155.887 148.748L153.746 150.034Z" fill="#2F2E41"/>
<path d="M145.544 149.057L145.531 149.057C145.154 149.056 144.778 149.034 144.403 148.992C144.261 148.978 144.106 148.963 143.919 148.948L143.913 148.946C143.785 148.909 143.782 147.715 143.836 143.63C143.864 141.537 143.895 139.165 143.858 137.655L143.857 137.64L143.868 137.63C144.542 137.04 145.346 136.617 146.214 136.396C147.083 136.176 147.991 136.164 148.865 136.362L148.878 136.365L148.885 136.377C149.647 137.665 150.796 139.52 151.908 141.314C154.459 145.433 155.189 146.644 155.109 146.736L155.099 146.743C154.925 146.83 154.794 146.897 154.683 146.954C154.243 147.182 153.791 147.386 153.328 147.565L153.308 147.574L153.293 147.557C150.704 144.72 148.549 141.551 147.217 138.622C147.061 139.622 146.872 140.928 146.672 142.308C146.098 146.276 145.71 148.889 145.554 149.048L145.544 149.057Z" fill="#2F2E41"/>
<path d="M146.242 137.96C147.786 137.953 149.319 138.21 150.777 138.719C150.827 136.273 150.007 133.888 148.463 131.99L148.451 131.976L148.457 131.959C148.864 130.784 149.284 129.569 149.66 128.361L149.654 128.34C149.391 127.404 148.825 126.458 147.925 125.447C147.828 125.346 147.695 125.286 147.555 125.279C147.415 125.272 147.277 125.318 147.17 125.409C146.381 126.13 145.767 127.02 145.374 128.014C144.981 129.007 144.819 130.076 144.9 131.142L144.901 131.148L144.899 131.153C144.195 133.54 143.939 134.766 143.713 135.848C143.549 136.637 143.406 137.32 143.12 138.296C144.146 138.073 145.192 137.96 146.242 137.96Z" fill="#CBCBCB"/>
<path opacity="0.1" d="M148.515 130.415L146.223 135.405L144.913 134.079L148.515 130.415Z" fill="black"/>
<path d="M147.535 124.961C148.435 124.961 149.165 124.231 149.165 123.331C149.165 122.43 148.435 121.7 147.535 121.7C146.634 121.7 145.904 122.43 145.904 123.331C145.904 124.231 146.634 124.961 147.535 124.961Z" fill="#9F616A"/>
<path d="M145.558 122.41H148.147V121.281C147.579 121.055 147.023 120.863 146.686 121.281C146.387 121.281 146.1 121.4 145.888 121.612C145.677 121.823 145.558 122.11 145.558 122.41Z" fill="#2F2E41"/>
<path d="M148.29 121.082C149.838 121.082 150.271 123.022 150.271 124.117C150.271 124.727 149.995 124.945 149.562 125.019L149.408 124.202L149.05 125.055C148.928 125.055 148.8 125.053 148.667 125.05L148.545 124.8L148.274 125.046C147.187 125.047 146.309 125.206 146.309 124.117C146.309 123.022 146.689 121.082 148.29 121.082Z" fill="#2F2E41"/>
<path d="M195.044 45.75C195.044 88.7274 149.987 109.292 149.987 109.292C149.987 109.292 104.468 88.7274 103.544 45.75C103.001 20.4888 124.027 0 149.294 0C174.561 0 195.044 20.483 195.044 45.75Z" fill="#FFCDD3"/>
<path d="M150.954 149.336H150.004L149.552 145.673H150.954V149.336Z" fill="#CAC1C1"/>
<path d="M149.325 149.065H151.157V150.218H148.172C148.172 150.067 148.202 149.917 148.26 149.777C148.318 149.637 148.403 149.51 148.51 149.403C148.617 149.295 148.744 149.211 148.884 149.153C149.024 149.095 149.174 149.065 149.325 149.065Z" fill="#2F2E41"/>
<path d="M154.517 149.336H153.567L153.115 145.673H154.517L154.517 149.336Z" fill="#CAC1C1"/>
<path d="M152.889 149.065H154.72V150.218H151.736C151.736 149.912 151.857 149.619 152.073 149.403C152.29 149.186 152.583 149.065 152.889 149.065Z" fill="#2F2E41"/>
<path d="M154.401 138.426C154.299 138.36 154.212 138.273 154.147 138.17C154.082 138.067 154.041 137.951 154.026 137.83C154.01 137.71 154.022 137.587 154.059 137.471C154.096 137.355 154.158 137.249 154.241 137.16L153.616 128.286L155.417 128.46L155.467 137.151C155.607 137.3 155.688 137.495 155.695 137.7C155.701 137.905 155.632 138.105 155.5 138.262C155.369 138.419 155.184 138.522 154.982 138.553C154.779 138.583 154.573 138.538 154.401 138.426Z" fill="#CAC1C1"/>
<path d="M150.909 147.491L149.863 147.441C149.774 147.437 149.69 147.398 149.628 147.334C149.566 147.27 149.532 147.184 149.531 147.095L149.458 136.517C149.458 136.466 149.468 136.417 149.489 136.371C149.51 136.325 149.54 136.284 149.578 136.251C149.616 136.218 149.66 136.194 149.708 136.18C149.756 136.166 149.807 136.162 149.857 136.169L154.04 136.776C154.122 136.788 154.198 136.829 154.253 136.892C154.308 136.955 154.338 137.035 154.338 137.119L154.876 146.921C154.876 146.967 154.868 147.012 154.85 147.055C154.833 147.098 154.807 147.136 154.775 147.169C154.742 147.202 154.704 147.228 154.661 147.245C154.619 147.263 154.573 147.272 154.527 147.272H153.4C153.317 147.272 153.237 147.243 153.173 147.189C153.11 147.135 153.068 147.06 153.056 146.978C153.056 146.978 152.205 139.625 152.088 139.629C151.97 139.632 151.271 147.184 151.271 147.184C151.261 147.269 151.22 147.346 151.156 147.403C151.093 147.46 151.01 147.491 150.925 147.491C150.92 147.491 150.914 147.491 150.909 147.491Z" fill="#2F2E41"/>
<path d="M154.024 131.267C153.981 131.237 153.947 131.198 153.922 131.152C153.897 131.106 153.882 131.056 153.88 131.004L153.748 128.612C153.735 128.375 153.81 128.142 153.959 127.957C154.107 127.772 154.319 127.649 154.554 127.611C154.788 127.573 155.028 127.624 155.227 127.752C155.427 127.881 155.572 128.079 155.634 128.308L156.214 130.446C156.238 130.536 156.225 130.631 156.179 130.711C156.133 130.791 156.057 130.85 155.968 130.874L154.319 131.321C154.269 131.335 154.216 131.337 154.165 131.328C154.114 131.319 154.066 131.298 154.024 131.267Z" fill="#3F3D56"/>
<path d="M152.483 125.583C153.534 125.583 154.386 124.731 154.386 123.68C154.386 122.629 153.534 121.778 152.483 121.778C151.432 121.778 150.58 122.629 150.58 123.68C150.58 124.731 151.432 125.583 152.483 125.583Z" fill="#CAC1C1"/>
<path d="M153.829 125.185C153.75 125.271 153.647 125.333 153.534 125.362C153.421 125.392 153.302 125.388 153.19 125.353C153.079 125.317 152.98 125.25 152.906 125.16C152.831 125.07 152.784 124.96 152.769 124.844C152.765 124.804 152.766 124.764 152.77 124.724C152.794 124.495 152.926 124.287 152.894 124.045C152.887 123.985 152.865 123.928 152.829 123.879C152.546 123.5 151.882 124.048 151.615 123.706C151.452 123.495 151.644 123.164 151.518 122.929C151.353 122.619 150.862 122.772 150.554 122.602C150.211 122.413 150.232 121.888 150.457 121.568C150.604 121.379 150.791 121.225 151.004 121.116C151.217 121.008 151.452 120.947 151.691 120.94C152.169 120.929 152.645 121.021 153.084 121.212C153.603 121.381 154.061 121.698 154.401 122.125C154.577 122.405 154.689 122.72 154.728 123.049C154.767 123.377 154.732 123.71 154.627 124.023C154.512 124.407 154.119 124.877 153.829 125.185Z" fill="#2F2E41"/>
<path d="M154.382 126.854C154.349 126.83 154.315 126.807 154.281 126.784C154.098 126.662 153.9 126.565 153.693 126.495V125.995H152.221V126.459C151.733 126.594 151.295 126.869 150.962 127.25C150.63 127.632 150.416 128.102 150.349 128.604L149.347 136.045C149.34 136.091 149.343 136.139 149.356 136.184C149.368 136.229 149.39 136.271 149.419 136.308C149.447 136.345 149.483 136.375 149.524 136.397C149.564 136.42 149.609 136.433 149.655 136.438C150.358 136.529 151.034 136.76 151.645 137.119C152.088 137.365 152.587 137.492 153.094 137.489C153.496 137.487 153.895 137.416 154.273 137.279C154.337 137.255 154.393 137.213 154.433 137.158C154.473 137.103 154.496 137.037 154.499 136.969C154.535 136.168 154.746 132.046 155.361 129.532C155.48 129.039 155.451 128.521 155.277 128.045C155.103 127.568 154.791 127.154 154.382 126.854Z" fill="#3F3D56"/>
<path d="M165.237 111.833H134.737L131.04 97.0455H168.934L165.237 111.833Z" fill="#3F3D56"/>
<path d="M164.197 137.123H135.777V151.934H164.197V137.123Z" fill="white"/>
<path d="M164.428 152.165H135.546V136.892H164.428V152.165ZM136.008 151.703H163.966V137.354H136.008V151.703Z" fill="#3F3D56"/>
<path d="M155.813 113.577H144.161L142.824 111.476H157.15L155.813 113.577Z" fill="#3F3D56"/>
<path d="M135.43 111.833H134.968V134.477H135.43V111.833Z" fill="#3F3D56"/>
<path d="M165.006 111.833H164.544V134.477H165.006V111.833Z" fill="#3F3D56"/>
<path d="M154.619 96.7951L154.337 96.4291C167.687 86.1339 183.601 68.4966 183.601 42.9377C183.612 33.986 180.98 25.2305 176.034 17.7691C171.088 10.3077 164.049 4.47264 155.8 0.995756L155.981 0.57019C164.313 4.08236 171.423 9.9766 176.419 17.5137C181.415 25.0508 184.074 33.8952 184.064 42.9377C184.064 68.6843 168.052 86.4365 154.619 96.7951Z" fill="#3F3D56"/>
<path d="M139.831 96.7952L139.549 96.4292C152.899 86.134 168.814 68.4967 168.814 42.9377C168.817 34.0462 166.216 25.3484 161.332 17.9187C156.447 10.489 149.493 4.65281 141.329 1.13106L141.512 0.706848C149.759 4.26433 156.784 10.1597 161.718 17.6649C166.652 25.17 169.279 33.956 169.276 42.9377C169.276 68.6844 153.264 86.4367 139.831 96.7952Z" fill="#3F3D56"/>
<path d="M158.756 96.7951C145.324 86.4366 129.312 68.6844 129.312 42.9377C129.308 33.9559 131.936 25.1698 136.87 17.6647C141.804 10.1595 148.829 4.26414 157.076 0.706726L157.259 1.13094C149.095 4.65263 142.141 10.4888 137.256 17.9186C132.372 25.3483 129.771 34.0462 129.774 42.9377C129.774 68.4966 145.688 86.1339 159.039 96.4291L158.756 96.7951Z" fill="#3F3D56"/>
<path d="M143.969 96.7951C130.536 86.4366 114.524 68.6845 114.524 42.9377C114.509 33.8596 117.187 24.9809 122.219 17.4252C127.252 9.86955 134.412 3.97636 142.795 0.491333L142.973 0.917801C134.675 4.36779 127.586 10.2018 122.604 17.6815C117.622 25.1613 114.971 33.9508 114.986 42.9377C114.986 68.4968 130.9 86.134 144.251 96.4291L143.969 96.7951Z" fill="#3F3D56"/>
<path d="M149.525 0H149.063V97.0456H149.525V0Z" fill="#3F3D56"/>
<path d="M144.087 133.765L135.613 142.239L135.94 142.566L144.414 134.092L144.087 133.765Z" fill="#3F3D56"/>
<path d="M148.207 133.624L135.61 146.873L135.945 147.191L148.542 133.943L148.207 133.624Z" fill="#3F3D56"/>
<path d="M166.854 133.784H132.195V137.943H166.854V133.784Z" fill="white"/>
<path d="M167.086 138.174H131.964V133.553H167.086V138.174ZM132.426 137.712H166.623V134.015H132.426V137.712Z" fill="#3F3D56"/>
<path d="M143.405 135.719C143.498 135.712 143.588 135.686 143.669 135.64C143.75 135.595 143.821 135.533 143.875 135.458C143.93 135.383 143.967 135.297 143.985 135.205C144.002 135.114 144 135.02 143.977 134.93L145.866 133.693L144.789 133.228L143.16 134.474C143.012 134.522 142.886 134.623 142.806 134.758C142.727 134.892 142.7 135.051 142.73 135.205C142.76 135.358 142.845 135.495 142.97 135.59C143.094 135.685 143.249 135.731 143.405 135.719Z" fill="#9F616A"/>
<path d="M145.222 134.827L145.198 134.81C144.749 134.48 144.25 134.138 143.767 133.807L143.738 133.787L143.761 133.76C144.791 132.555 145.822 131.297 146.819 130.079L146.817 130.075L146.827 130.07L146.831 130.065L146.833 130.067L146.839 130.064L146.812 130.066L146.504 127.656C146.352 127.405 146.275 127.116 146.28 126.823C146.286 126.53 146.375 126.244 146.538 126C146.724 125.736 147.001 125.551 147.316 125.479C147.631 125.407 147.961 125.454 148.244 125.61C148.383 125.704 148.5 125.828 148.585 125.972C148.67 126.117 148.721 126.279 148.735 126.446C148.755 126.596 148.741 126.747 148.695 126.89C148.649 127.033 148.571 127.164 148.468 127.273C148.574 128.443 148.621 129.617 148.608 130.792L148.608 130.803L148.601 130.812C147.538 132.163 146.371 133.506 145.241 134.805L145.222 134.827Z" fill="#CBCBCB"/>
<path d="M145.588 127.418C145.598 127.46 145.604 127.503 145.607 127.545L148.934 129.465L149.743 129L150.606 130.128L148.875 131.362L145.079 128.367C144.924 128.424 144.755 128.433 144.595 128.392C144.435 128.351 144.292 128.262 144.183 128.138C144.075 128.013 144.007 127.859 143.989 127.695C143.97 127.531 144.002 127.365 144.08 127.219C144.158 127.074 144.279 126.956 144.426 126.88C144.573 126.805 144.739 126.776 144.903 126.798C145.067 126.82 145.22 126.891 145.342 127.001C145.465 127.112 145.55 127.258 145.588 127.418Z" fill="#CAC1C1"/>
<path d="M149.053 129.302C149.048 129.25 149.054 129.198 149.071 129.149C149.089 129.1 149.117 129.056 149.153 129.019L150.847 127.325C151.015 127.157 151.239 127.057 151.476 127.045C151.713 127.032 151.946 127.108 152.131 127.257C152.315 127.407 152.438 127.619 152.475 127.853C152.512 128.088 152.461 128.328 152.332 128.527L151.126 130.385C151.076 130.463 150.996 130.517 150.906 130.536C150.816 130.556 150.721 130.538 150.644 130.488L149.21 129.558C149.167 129.53 149.13 129.492 149.103 129.448C149.076 129.403 149.059 129.354 149.053 129.302Z" fill="#3F3D56"/>
<path d="M126.01 112.81C125.95 112.81 125.893 112.788 125.849 112.747C125.806 112.706 125.779 112.651 125.775 112.592C125.621 110.501 124.684 108.546 123.15 107.117C121.617 105.688 119.6 104.891 117.504 104.886C117.253 104.886 116.99 104.899 116.721 104.924C116.676 104.928 116.631 104.919 116.59 104.898C116.55 104.877 116.517 104.846 116.495 104.806C115.532 103.121 114.094 101.757 112.361 100.883C110.627 100.01 108.675 99.6667 106.748 99.8959C104.82 100.125 103.003 100.917 101.523 102.172C100.043 103.428 98.9652 105.091 98.4245 106.956C98.4102 107.005 98.3797 107.049 98.3379 107.08C98.296 107.111 98.245 107.127 98.1931 107.125L98.1306 107.123C98.098 107.122 98.0655 107.121 98.0327 107.121C96.4429 107.126 94.9025 107.675 93.6673 108.675C92.432 109.676 91.5761 111.069 91.2415 112.624C91.2304 112.676 91.2014 112.724 91.1595 112.758C91.1176 112.792 91.0652 112.81 91.0112 112.81H75.2473C75.2163 112.81 75.1856 112.804 75.157 112.793C75.1284 112.781 75.1023 112.764 75.0804 112.742C75.0585 112.72 75.0411 112.694 75.0292 112.665C75.0173 112.637 75.0112 112.606 75.0112 112.575C75.0112 112.544 75.0173 112.513 75.0292 112.485C75.0411 112.456 75.0585 112.43 75.0804 112.408C75.1023 112.387 75.1284 112.369 75.157 112.357C75.1856 112.346 75.2163 112.34 75.2473 112.34H90.8229C91.215 110.723 92.1373 109.284 93.4427 108.253C94.748 107.222 96.3611 106.658 98.0246 106.651C98.6168 104.735 99.7525 103.033 101.294 101.75C102.835 100.468 104.716 99.6607 106.707 99.4268C108.699 99.1929 110.715 99.5424 112.511 100.433C114.308 101.323 115.807 102.716 116.827 104.442C117.059 104.424 117.286 104.415 117.504 104.415C119.719 104.421 121.85 105.263 123.471 106.773C125.091 108.283 126.082 110.349 126.245 112.559C126.247 112.589 126.243 112.62 126.233 112.65C126.223 112.679 126.208 112.706 126.188 112.729C126.167 112.753 126.143 112.772 126.115 112.786C126.087 112.799 126.057 112.808 126.026 112.81C126.021 112.81 126.015 112.81 126.01 112.81Z" fill="#CBCBCB"/>
<path d="M123.21 115.827H84.6204C84.5895 115.827 84.5588 115.821 84.5302 115.81C84.5015 115.798 84.4755 115.781 84.4536 115.759C84.4317 115.737 84.4143 115.711 84.4024 115.682C84.3905 115.654 84.3844 115.623 84.3844 115.592C84.3844 115.561 84.3905 115.53 84.4024 115.502C84.4143 115.473 84.4317 115.447 84.4536 115.425C84.4755 115.404 84.5015 115.386 84.5302 115.374C84.5588 115.363 84.5895 115.357 84.6204 115.357H123.21C123.272 115.357 123.332 115.382 123.376 115.426C123.421 115.47 123.445 115.53 123.445 115.592C123.445 115.654 123.421 115.714 123.376 115.758C123.332 115.803 123.272 115.827 123.21 115.827Z" fill="#CBCBCB"/>
<path d="M94.0325 119.239H81.0909C81.0599 119.239 81.0293 119.233 81.0006 119.222C80.972 119.21 80.946 119.192 80.924 119.171C80.9021 119.149 80.8847 119.123 80.8728 119.094C80.861 119.066 80.8549 119.035 80.8549 119.004C80.8549 118.973 80.861 118.942 80.8728 118.914C80.8847 118.885 80.9021 118.859 80.924 118.837C80.946 118.815 80.972 118.798 81.0006 118.786C81.0293 118.775 81.0599 118.769 81.0909 118.769H94.0325C94.0635 118.769 94.0942 118.775 94.1228 118.786C94.1514 118.798 94.1775 118.815 94.1994 118.837C94.2213 118.859 94.2387 118.885 94.2506 118.914C94.2625 118.942 94.2686 118.973 94.2686 119.004C94.2686 119.035 94.2625 119.066 94.2506 119.094C94.2387 119.123 94.2213 119.149 94.1994 119.171C94.1775 119.192 94.1514 119.21 94.1228 119.222C94.0942 119.233 94.0635 119.239 94.0325 119.239Z" fill="#CBCBCB"/>
</g>
<path d="M2.0625 188.556C2.0625 187.681 2.35938 186.946 2.95312 186.352C3.57812 185.727 4.32812 185.415 5.20312 185.415H32.4844C33.3594 185.415 34.1094 185.712 34.7344 186.306C35.3281 186.931 35.625 187.681 35.625 188.556C35.625 189.431 35.3125 190.181 34.6875 190.806C34.0938 191.399 33.3594 191.696 32.4844 191.696H22.0312V210.681C21.8438 212.556 20.8125 213.571 18.9375 213.727C18.0625 213.727 17.2969 213.446 16.6406 212.884C16.0156 212.29 15.7031 211.556 15.7031 210.681V191.696H5.20312C4.32812 191.696 3.59375 191.384 3 190.759C2.375 190.165 2.0625 189.431 2.0625 188.556ZM41.5312 197.696C42.125 196.196 43.125 194.852 44.5312 193.665C45.9688 192.446 47.7812 191.821 49.9688 191.79H67.5938C68.4688 191.79 69.2031 192.102 69.7969 192.727C70.4219 193.321 70.7344 194.056 70.7344 194.931C70.7344 195.806 70.4219 196.556 69.7969 197.181C69.2031 197.774 68.4688 198.071 67.5938 198.071H49.7812C49.1875 198.071 48.6719 198.321 48.2344 198.821C47.7969 199.29 47.4531 199.852 47.2031 200.509C46.9844 201.165 46.875 201.79 46.875 202.384V210.587C46.6875 212.462 45.6562 213.477 43.7812 213.634C42.9062 213.634 42.1406 213.352 41.4844 212.79C40.8594 212.196 40.5469 211.462 40.5469 210.587V202.431H40.5938C40.5938 200.806 40.9062 199.227 41.5312 197.696ZM101.578 210.587V199.29C101.578 198.509 101.172 198.102 100.359 198.071H83.9531C83.3594 198.102 82.8438 198.368 82.4062 198.868C81.9688 199.337 81.6406 199.899 81.4219 200.556C81.2344 201.181 81.1406 201.821 81.1406 202.477C81.1406 203.102 81.2344 203.743 81.4219 204.399C81.6406 205.024 81.9688 205.587 82.4062 206.087C82.8438 206.556 83.3594 206.79 83.9531 206.79H95.9531C96.8281 206.79 97.5625 207.102 98.1562 207.727C98.7812 208.321 99.0938 209.056 99.0938 209.931C99.0938 210.806 98.7812 211.54 98.1562 212.134C97.5625 212.759 96.8281 213.071 95.9531 213.071H84.1406C81.9531 213.04 80.1406 212.431 78.7031 211.243C77.2969 210.024 76.2812 208.665 75.6562 207.165C75.0625 205.634 74.7656 204.056 74.7656 202.431C74.7656 200.868 75.0781 199.337 75.7031 197.837C76.3281 196.306 77.3438 194.946 78.75 193.759C80.1562 192.54 82.2344 191.884 84.9844 191.79H104.672C105.547 191.79 106.297 192.087 106.922 192.681C107.547 193.243 107.875 193.962 107.906 194.837V210.587C107.906 211.462 107.578 212.196 106.922 212.79C106.297 213.352 105.547 213.634 104.672 213.634C102.797 213.477 101.766 212.462 101.578 210.587ZM121.359 210.587C119.766 208.431 118.172 205.602 116.578 202.102L113.531 195.54C113.375 195.196 113.281 194.821 113.25 194.415C113.188 193.54 113.453 192.79 114.047 192.165C114.641 191.54 115.422 191.227 116.391 191.227C117.453 191.227 118.234 191.446 118.734 191.884C119.266 192.29 119.688 192.821 120 193.477L122.203 198.915C122.766 200.196 123.312 201.415 123.844 202.571C124.406 203.696 125.031 204.727 125.719 205.665C126.438 206.602 127.234 207.102 128.109 207.165C128.953 207.102 129.75 206.602 130.5 205.665C131.156 204.727 131.75 203.696 132.281 202.571C132.844 201.415 133.406 200.196 133.969 198.915L136.172 193.477C136.484 192.821 136.891 192.29 137.391 191.884C137.922 191.446 138.719 191.227 139.781 191.227C140.75 191.227 141.531 191.54 142.125 192.165C142.719 192.79 142.984 193.54 142.922 194.415C142.891 194.821 142.797 195.196 142.641 195.54L139.594 202.102C138 205.602 136.406 208.431 134.812 210.587C133.281 212.712 131.047 213.79 128.109 213.821C125.141 213.79 122.891 212.712 121.359 210.587ZM157.734 213.071C154.984 212.977 152.906 212.337 151.5 211.149C150.094 209.931 149.078 208.571 148.453 207.071C147.828 205.54 147.516 203.993 147.516 202.431C147.516 200.806 147.812 199.243 148.406 197.743C149.031 196.212 150.047 194.852 151.453 193.665C152.891 192.446 154.703 191.821 156.891 191.79H174.703C175.578 191.79 176.312 192.087 176.906 192.681C177.531 193.243 177.844 193.931 177.844 194.743C177.844 195.587 177.531 196.306 176.906 196.899C176.312 197.462 175.578 197.743 174.703 197.743H157.172C156.484 197.743 155.875 197.977 155.344 198.446C154.844 198.915 154.469 199.524 154.219 200.274C154 201.024 153.891 201.759 153.891 202.477C153.891 203.259 154 204.024 154.219 204.774C154.469 205.524 154.844 206.134 155.344 206.602C155.875 207.04 156.484 207.274 157.172 207.306H174.703C175.578 207.306 176.312 207.587 176.906 208.149C177.531 208.712 177.844 209.384 177.844 210.165C177.844 210.977 177.531 211.665 176.906 212.227C176.312 212.79 175.578 213.071 174.703 213.071H157.734ZM177.281 202.337C177.281 202.931 177.016 203.446 176.484 203.884C176.016 204.29 175.422 204.493 174.703 204.493H159.375C158.656 204.493 158.047 204.29 157.547 203.884C157.047 203.446 156.797 202.931 156.797 202.337C156.797 201.774 157.047 201.274 157.547 200.837C158.047 200.431 158.656 200.227 159.375 200.227H174.703C175.422 200.227 176.031 200.446 176.531 200.884C177.031 201.29 177.281 201.774 177.281 202.337ZM186.469 184.665C187.312 184.696 188.031 185.009 188.625 185.602C189.219 186.165 189.531 186.868 189.562 187.712V210.681C189.375 212.556 188.344 213.571 186.469 213.727C185.594 213.727 184.828 213.446 184.172 212.884C183.547 212.29 183.234 211.556 183.234 210.681V187.712C183.266 186.837 183.594 186.118 184.219 185.556C184.844 184.962 185.594 184.665 186.469 184.665ZM198.75 184.665C199.594 184.696 200.312 185.009 200.906 185.602C201.5 186.165 201.812 186.868 201.844 187.712V210.681C201.656 212.556 200.625 213.571 198.75 213.727C197.875 213.727 197.109 213.446 196.453 212.884C195.828 212.29 195.516 211.556 195.516 210.681V187.712C195.547 186.837 195.875 186.118 196.5 185.556C197.125 184.962 197.875 184.665 198.75 184.665ZM217.5 213.071C214.75 212.977 212.672 212.337 211.266 211.149C209.859 209.931 208.844 208.571 208.219 207.071C207.594 205.54 207.281 203.993 207.281 202.431C207.281 200.806 207.578 199.243 208.172 197.743C208.797 196.212 209.812 194.852 211.219 193.665C212.656 192.446 214.469 191.821 216.656 191.79H231.844C234.031 191.821 235.828 192.446 237.234 193.665C238.672 194.852 239.688 196.212 240.281 197.743C240.906 199.243 241.219 200.806 241.219 202.431C241.219 203.993 240.906 205.54 240.281 207.071C239.656 208.571 238.641 209.931 237.234 211.149C235.828 212.337 233.75 212.977 231 213.071H217.5ZM216.469 198.071C215.875 198.071 215.359 198.321 214.922 198.821C214.484 199.29 214.156 199.852 213.938 200.509C213.75 201.134 213.656 201.759 213.656 202.384C213.656 203.04 213.75 203.696 213.938 204.352C214.156 204.977 214.484 205.54 214.922 206.04C215.359 206.509 215.875 206.759 216.469 206.79H232.031C232.625 206.759 233.141 206.509 233.578 206.04C234.016 205.54 234.328 204.977 234.516 204.352C234.734 203.696 234.844 203.04 234.844 202.384C234.844 201.759 234.734 201.134 234.516 200.509C234.328 199.852 234.016 199.29 233.578 198.821C233.141 198.321 232.625 198.071 232.031 198.071H216.469Z" fill="white"/>
<path d="M209.082 180.013C214.774 177.79 218.193 168.628 223.658 174.32C229.123 180.013 231.855 182.29 236.865 182.062C241.874 181.835 248.933 175.914 248.933 175.914" stroke="#F1F1F1"/>
<path d="M209.082 180.013C214.774 177.79 218.193 168.628 223.658 174.32C229.123 180.013 231.855 182.29 236.865 182.062C241.874 181.835 248.933 175.914 248.933 175.914" stroke="#F1F1F1"/>
<path d="M209.082 183.201C214.774 180.978 218.193 171.816 223.658 177.509C229.123 183.201 231.855 185.478 236.865 185.251C241.874 185.023 248.933 179.103 248.933 179.103" stroke="#FF7686"/>
<path d="M209.082 183.201C214.774 180.978 218.193 171.816 223.658 177.509C229.123 183.201 231.855 185.478 236.865 185.251C241.874 185.023 248.933 179.103 248.933 179.103" stroke="#FF7686"/>
<path d="M209.082 186.389C214.774 184.166 218.193 175.004 223.658 180.697C229.123 186.389 231.855 188.666 236.865 188.439C241.874 188.211 248.933 182.29 248.933 182.29" stroke="#F1F1F1"/>
<path d="M209.082 186.389C214.774 184.166 218.193 175.004 223.658 180.697C229.123 186.389 231.855 188.666 236.865 188.439C241.874 188.211 248.933 182.29 248.933 182.29" stroke="#F1F1F1"/>
<defs>
<clipPath id="clip0_212_1509">
<rect width="200" height="152.165" fill="white" transform="translate(24.5)"/>
</clipPath>
</defs>
</svg>
